<svg xmlns="http://www.w3.org/2000/svg" viewBox="0 0 314 309">
  <style>
    path { fill: #1c1c1a; }
    @media (prefers-color-scheme: dark) { path { fill: #ffffff; } }
  </style>
  <path d="M313.953 154.399C313.953 206.831 287.326 253.224 246.696 281.091V66.1249H28.1702C56.4976 26.1761 103.602 0 157.019 0C243.701 0 313.953 69.1049 313.953 154.399Z"/>
  <path d="M134.591 286.727V307.184C65.7956 297.519 11.407 244.039 1.61377 176.465H22.4142C84.3299 176.465 134.591 225.837 134.591 286.727Z"/>
  <path d="M224.272 286.733V293.902C203.877 303.406 181.053 308.721 157.015 308.721V154.323H0C0 130.643 5.42268 108.172 15.1349 88.1172H22.4191C133.867 88.1172 224.272 176.955 224.272 286.572V286.733Z"/>
</svg>
